# xmcd
#
# Track frame offsets:
#	150
#	13732
#	32304
#	47326
#	60694
#	72785
#	84697
#	99347
#	117752
#	125917
#	135521
#	148822
#
# Disc length: 2112 seconds
#
# Revision: 0
# Processed by: cddbd v1.5.1PL2 Copyright (c) Steve Scherf et al.
# Submitted via: dBpowerAMP V4.0
#
DISCID=9f083e0c
DTITLE=Various Artist - Christmas in the Country
DYEAR=2005
DGENRE=Country
TTITLE0=O Holy Night - Lee Greenwood
TTITLE1=O Little Town of Bethlehem - Vince Gill
TTITLE2=I Know What I Want for Christmas - George Straight
TTITLE3=The First Noel - Loretta Lynn
TTITLE4=White Christmas - Oak Ridge Boys
TTITLE5=Winter Wonderland - Barbara Mandrell
TTITLE6=It Came Upon a Midnight Clear - Nitty Gritty Dirt Band
TTITLE7=Nothing but a Child - Kathy Mattea
TTITLE8=We Three Kings - Sammy Kershaw
TTITLE9=Silver Bells - Brenda Lee
TTITLE10=Jingle Bells - Statler Brothers
TTITLE11=Maybe Next Christmas - George Jones
EXTD=
EXTT0=
EXTT1=
EXTT2=
EXTT3=
EXTT4=
EXTT5=
EXTT6=
EXTT7=
EXTT8=
EXTT9=
EXTT10=
EXTT11=
PLAYORDER=
